<!-- <svg xmlns="http://www.w3.org/2000/svg" viewBox="0 0 841.9 595.3"><g fill="#61DAFB"><path d="M666.3 296.5c0-32.5-40.7-63.3-103.1-82.4 14.4-63.6 8-114.2-20.2-130.4-6.5-3.8-14.1-5.6-22.4-5.6v22.3c4.6 0 8.3.9 11.4 2.6 13.6 7.8 19.5 37.5 14.9 75.7-1.1 9.4-2.9 19.3-5.1 29.4-19.6-4.8-41-8.5-63.5-10.9-13.5-18.5-27.5-35.3-41.6-50 32.6-30.3 63.2-46.9 84-46.9V78c-27.5 0-63.5 19.6-99.9 53.6-36.4-33.8-72.4-53.2-99.9-53.2v22.3c20.7 0 51.4 16.5 84 46.6-14 14.7-28 31.4-41.3 49.9-22.6 2.4-44 6.1-63.6 11-2.3-10-4-19.7-5.2-29-4.7-38.2 1.1-67.9 14.6-75.8 3-1.8 6.9-2.6 11.5-2.6V78.5c-8.4 0-16 1.8-22.6 5.6-28.1 16.2-34.4 66.7-19.9 130.1-62.2 19.2-102.7 49.9-102.7 82.3 0 32.5 40.7 63.3 103.1 82.4-14.4 63.6-8 114.2 20.2 130.4 6.5 3.8 14.1 5.6 22.5 5.6 27.5 0 63.5-19.6 99.9-53.6 36.4 33.8 72.4 53.2 99.9 53.2 8.4 0 16-1.8 22.6-5.6 28.1-16.2 34.4-66.7 19.9-130.1 62-19.1 102.5-49.9 102.5-82.3zm-130.2-66.7c-3.7 12.9-8.3 26.2-13.5 39.5-4.1-8-8.4-16-13.1-24-4.6-8-9.5-15.8-14.4-23.4 14.2 2.1 27.9 4.7 41 7.9zm-45.8 106.5c-7.8 13.5-15.8 26.3-24.1 38.2-14.9 1.3-30 2-45.2 2-15.1 0-30.2-.7-45-1.9-8.3-11.9-16.4-24.6-24.2-38-7.6-13.1-14.5-26.4-20.8-39.8 6.2-13.4 13.2-26.8 20.7-39.9 7.8-13.5 15.8-26.3 24.1-38.2 14.9-1.3 30-2 45.2-2 15.1 0 30.2.7 45 1.9 8.3 11.9 16.4 24.6 24.2 38 7.6 13.1 14.5 26.4 20.8 39.8-6.3 13.4-13.2 26.8-20.7 39.9zm32.3-13c5.4 13.4 10 26.8 13.8 39.8-13.1 3.2-26.9 5.9-41.2 8 4.9-7.7 9.8-15.6 14.4-23.7 4.6-8 8.9-16.1 13-24.1zM421.2 430c-9.3-9.6-18.6-20.3-27.8-32 9 .4 18.2.7 27.5.7 9.4 0 18.7-.2 27.8-.7-9 11.7-18.3 22.4-27.5 32zm-74.4-58.9c-14.2-2.1-27.9-4.7-41-7.9 3.7-12.9 8.3-26.2 13.5-39.5 4.1 8 8.4 16 13.1 24 4.7 8 9.5 15.8 14.4 23.4zM420.7 163c9.3 9.6 18.6 20.3 27.8 32-9-.4-18.2-.7-27.5-.7-9.4 0-18.7.2-27.8.7 9-11.7 18.3-22.4 27.5-32zm-74 58.9c-4.9 7.7-9.8 15.6-14.4 23.7-4.6 8-8.9 16-13 24-5.4-13.4-10-26.8-13.8-39.8 13.1-3.1 26.9-5.8 41.2-7.9zm-90.5 125.2c-35.4-15.1-58.3-34.9-58.3-50.6 0-15.7 22.9-35.6 58.3-50.6 8.6-3.7 18-7 27.7-10.1 5.7 19.6 13.2 40 22.5 60.9-9.2 20.8-16.6 41.1-22.2 60.6-9.9-3.1-19.3-6.5-28-10.2zM310 490c-13.6-7.8-19.5-37.5-14.9-75.7 1.1-9.4 2.9-19.3 5.1-29.4 19.6 4.8 41 8.5 63.5 10.9 13.5 18.5 27.5 35.3 41.6 50-32.6 30.3-63.2 46.9-84 46.9-4.5-.1-8.3-1-11.3-2.7zm237.2-76.2c4.7 38.2-1.1 67.9-14.6 75.8-3 1.8-6.9 2.6-11.5 2.6-20.7 0-51.4-16.5-84-46.6 14-14.7 28-31.4 41.3-49.9 22.6-2.4 44-6.1 63.6-11 2.3 10.1 4.1 19.8 5.2 29.1zm38.5-66.7c-8.6 3.7-18 7-27.7 10.1-5.7-19.6-13.2-40-22.5-60.9 9.2-20.8 16.6-41.1 22.2-60.6 9.9 3.1 19.3 6.5 28.1 10.2 35.4 15.1 58.3 34.9 58.3 50.6-.1 15.7-23 35.6-58.4 50.6zM320.8 78.4z"/><circle cx="420.9" cy="296.5" r="45.7"/><path d="M520.5 78.1z"/></g></svg> -->
<svg xmlns="http://www.w3.org/2000/svg" xmlns:xlink="http://www.w3.org/1999/xlink" width="40" zoomAndPan="magnify" viewBox="0 0 30 30.000001" height="40" preserveAspectRatio="xMidYMid meet" version="1.0"><defs><clipPath id="id1"><path d="M 1.09375 15 L 5 15 L 5 19 L 1.09375 19 Z M 1.09375 15 " clip-rule="nonzero"/></clipPath><clipPath id="id2"><path d="M 24 10 L 28.675781 10 L 28.675781 14 L 24 14 Z M 24 10 " clip-rule="nonzero"/></clipPath></defs><path fill="#4aa8e2" d="M 8.65625 5.476562 C 8.6875 6.476562 7.910156 7.316406 6.914062 7.347656 C 5.921875 7.378906 5.089844 6.59375 5.058594 5.589844 C 5.027344 4.589844 5.808594 3.75 6.800781 3.71875 C 7.796875 3.6875 8.625 4.472656 8.65625 5.476562 " fill-opacity="1" fill-rule="nonzero"/><path fill="#4aa8e2" d="M 16.136719 11.511719 C 16.136719 11.511719 15.816406 11.253906 14.671875 11.128906 C 13.6875 11.019531 12.101562 11.003906 9.589844 11.332031 C 6.800781 11.695312 3.675781 10.636719 2.335938 7.976562 C 2.257812 7.828125 2.230469 7.582031 2.394531 7.546875 C 2.480469 7.527344 2.5625 7.589844 2.628906 7.648438 C 4.589844 9.316406 10.800781 10.433594 10.574219 6.300781 C 10.566406 6.160156 10.542969 6.015625 10.507812 5.882812 C 10.332031 5.152344 10.8125 5.414062 11.097656 5.746094 C 12.265625 7.101562 13.324219 8.511719 14.667969 9.589844 C 14.941406 9.808594 16.570312 10.933594 16.136719 11.511719 " fill-opacity="1" fill-rule="nonzero"/><g clip-path="url(#id1)"><path fill="#b62a9c" d="M 4.007812 15.433594 C 4.882812 15.90625 5.210938 17.007812 4.742188 17.890625 C 4.273438 18.773438 3.183594 19.105469 2.304688 18.632812 C 1.429688 18.160156 1.101562 17.058594 1.570312 16.175781 C 2.039062 15.292969 3.128906 14.960938 4.007812 15.433594 " fill-opacity="1" fill-rule="nonzero"/></g><path fill="#b62a9c" d="M 12.929688 11.921875 C 12.929688 11.921875 12.550781 12.070312 11.867188 13.007812 C 11.28125 13.8125 10.476562 15.191406 9.503906 17.546875 C 8.421875 20.164062 5.949219 22.363281 2.992188 22.207031 C 2.824219 22.195312 2.601562 22.097656 2.652344 21.9375 C 2.679688 21.851562 2.773438 21.8125 2.859375 21.785156 C 5.273438 20.90625 9.335938 16.039062 5.671875 14.171875 C 5.546875 14.109375 5.414062 14.058594 5.28125 14.019531 C 4.5625 13.808594 5.03125 13.519531 5.457031 13.4375 C 7.203125 13.097656 8.945312 12.878906 10.546875 12.242188 C 10.871094 12.113281 12.648438 11.25 12.929688 11.921875 " fill-opacity="1" fill-rule="nonzero"/><path fill="#ed1c24" d="M 10.234375 24.472656 C 11.078125 23.945312 12.1875 24.207031 12.710938 25.058594 C 13.234375 25.910156 12.976562 27.03125 12.132812 27.558594 C 11.285156 28.085938 10.175781 27.824219 9.652344 26.972656 C 9.128906 26.121094 9.390625 25 10.234375 24.472656 " fill-opacity="1" fill-rule="nonzero"/><path fill="#ed1c24" d="M 11.679688 14.925781 C 11.679688 14.925781 11.617188 15.332031 12.082031 16.398438 C 12.480469 17.308594 13.261719 18.703125 14.796875 20.730469 C 16.503906 22.984375 17.160156 26.242188 15.542969 28.742188 C 15.453125 28.886719 15.253906 29.03125 15.144531 28.90625 C 15.085938 28.839844 15.097656 28.738281 15.113281 28.652344 C 15.566406 26.105469 13.421875 20.125 9.984375 22.390625 C 9.867188 22.464844 9.757812 22.558594 9.65625 22.65625 C 9.117188 23.171875 9.105469 22.621094 9.246094 22.207031 C 9.824219 20.511719 10.507812 18.882812 10.761719 17.167969 C 10.8125 16.820312 10.964844 14.835938 11.679688 14.925781 " fill-opacity="1" fill-rule="nonzero"/><path fill="#f7980f" d="M 21.113281 23.554688 C 21.082031 22.554688 21.859375 21.714844 22.855469 21.683594 C 23.847656 21.652344 24.679688 22.441406 24.710938 23.441406 C 24.742188 24.441406 23.960938 25.28125 22.96875 25.3125 C 21.976562 25.34375 21.144531 24.558594 21.113281 23.554688 " fill-opacity="1" fill-rule="nonzero"/><path fill="#f7980f" d="M 13.632812 17.519531 C 13.632812 17.519531 13.953125 17.777344 15.097656 17.90625 C 16.082031 18.015625 17.667969 18.027344 20.179688 17.699219 C 22.96875 17.335938 26.09375 18.394531 27.4375 21.054688 C 27.511719 21.203125 27.539062 21.449219 27.375 21.484375 C 27.289062 21.503906 27.207031 21.441406 27.140625 21.382812 C 25.179688 19.714844 18.96875 18.597656 19.195312 22.734375 C 19.203125 22.871094 19.230469 23.015625 19.261719 23.152344 C 19.4375 23.882812 18.957031 23.617188 18.671875 23.285156 C 17.507812 21.933594 16.449219 20.519531 15.101562 19.441406 C 14.828125 19.222656 13.199219 18.101562 13.632812 17.519531 " fill-opacity="1" fill-rule="nonzero"/><g clip-path="url(#id2)"><path fill="#79c62a" d="M 25.761719 13.597656 C 24.886719 13.125 24.558594 12.027344 25.027344 11.140625 C 25.496094 10.257812 26.585938 9.925781 27.464844 10.398438 C 28.339844 10.875 28.667969 11.972656 28.199219 12.855469 C 27.730469 13.738281 26.640625 14.074219 25.761719 13.597656 " fill-opacity="1" fill-rule="nonzero"/></g><path fill="#79c62a" d="M 16.839844 17.109375 C 16.839844 17.109375 17.222656 16.960938 17.902344 16.023438 C 18.488281 15.21875 19.292969 13.839844 20.269531 11.484375 C 21.351562 8.867188 23.820312 6.667969 26.777344 6.828125 C 26.945312 6.835938 27.167969 6.933594 27.117188 7.09375 C 27.089844 7.179688 26.996094 7.21875 26.914062 7.25 C 24.496094 8.125 20.433594 12.992188 24.097656 14.859375 C 24.222656 14.921875 24.359375 14.972656 24.492188 15.011719 C 25.207031 15.222656 24.738281 15.511719 24.3125 15.59375 C 22.566406 15.933594 20.824219 16.152344 19.222656 16.789062 C 18.902344 16.917969 17.121094 17.78125 16.839844 17.109375 " fill-opacity="1" fill-rule="nonzero"/><path fill="#56c48b" d="M 19.535156 4.558594 C 18.691406 5.085938 17.582031 4.824219 17.058594 3.972656 C 16.535156 3.121094 16.792969 2.003906 17.640625 1.476562 C 18.484375 0.945312 19.59375 1.207031 20.117188 2.058594 C 20.640625 2.910156 20.382812 4.03125 19.535156 4.558594 " fill-opacity="1" fill-rule="nonzero"/><path fill="#56c48b" d="M 18.089844 14.109375 C 18.089844 14.109375 18.152344 13.699219 17.6875 12.632812 C 17.292969 11.722656 16.507812 10.328125 14.972656 8.300781 C 13.265625 6.046875 12.613281 2.789062 14.226562 0.289062 C 14.316406 0.144531 14.515625 0 14.628906 0.125 C 14.6875 0.191406 14.671875 0.292969 14.65625 0.378906 C 14.203125 2.925781 16.347656 8.910156 19.785156 6.644531 C 19.902344 6.566406 20.015625 6.472656 20.113281 6.378906 C 20.652344 5.859375 20.667969 6.410156 20.523438 6.824219 C 19.945312 8.519531 19.261719 10.148438 19.007812 11.863281 C 18.957031 12.210938 18.808594 14.195312 18.089844 14.109375 " fill-opacity="1" fill-rule="nonzero"/></svg>